HIERARCHY
ROOT Hips
{
    OFFSET   0.000000   0.000000   0.000000
    CHANNELS 6 Xposition Yposition Zposition Zrotation Xrotation Yrotation
    JOINT Chest
    {
        OFFSET   0.000000   8.007230   0.000000
        CHANNELS 3 Zrotation Xrotation Yrotation
        JOINT Chest2
        {
            OFFSET   0.000000  22.077100   0.000000
            CHANNELS 3 Zrotation Xrotation Yrotation
            JOINT Neck
            {
                OFFSET   0.000000  23.254800  -0.000021
                CHANNELS 3 Zrotation Xrotation Yrotation
                JOINT Head
                {
                    OFFSET   0.000000  14.370000   1.956610
                    CHANNELS 3 Zrotation Xrotation Yrotation
                    End Site
                    {
                        OFFSET   0.000000  19.566000   0.000000
                    }
                }
            }
            JOINT LeftCollar
            {
                OFFSET   3.911900  19.017000  -0.467063
                CHANNELS 3 Zrotation Xrotation Yrotation
                JOINT LeftShoulder
                {
                    OFFSET  10.383700   0.000000   0.000000
                    CHANNELS 3 Zrotation Xrotation Yrotation
                    JOINT LeftElbow
                    {
                        OFFSET  26.662100   0.001529   0.000325
                        CHANNELS 3 Zrotation Xrotation Yrotation
                        JOINT LeftWrist
                        {
                            OFFSET  28.869000  -0.000011  -0.000096
                            CHANNELS 3 Zrotation Xrotation Yrotation
                            JOINT LeftFinger0
                            {
                                OFFSET   2.044650  -2.323460   3.252850
                                CHANNELS 3 Zrotation Xrotation Yrotation
                                JOINT LeftFinger01
                                {
                                    OFFSET   3.088130   0.000000   0.000000
                                    CHANNELS 3 Zrotation Xrotation Yrotation
                                    JOINT LeftFinger02
                                    {
                                        OFFSET   2.639460   0.000000   0.000000
                                        CHANNELS 3 Zrotation Xrotation Yrotation
                                        End Site
                                        {
                                            OFFSET   2.582190   0.000000   0.000000
                                        }
                                    }
                                }
                            }
                            JOINT LeftFinger1
                            {
                                OFFSET   8.364480   0.000000   3.252850
                                CHANNELS 3 Zrotation Xrotation Yrotation
                                JOINT LeftFinger11
                                {
                                    OFFSET   4.646930   0.000000   0.000000
                                    CHANNELS 3 Zrotation Xrotation Yrotation
                                    JOINT LeftFinger12
                                    {
                                        OFFSET   2.323460   0.000000   0.000000
                                        CHANNELS 3 Zrotation Xrotation Yrotation
                                        End Site
                                        {
                                            OFFSET   2.273050   0.000000   0.000000
                                        }
                                    }
                                }
                            }
                            JOINT LeftFinger2
                            {
                                OFFSET   8.364480   0.000016   1.078090
                                CHANNELS 3 Zrotation Xrotation Yrotation
                                JOINT LeftFinger21
                                {
                                    OFFSET   5.111620   0.000000   0.000000
                                    CHANNELS 3 Zrotation Xrotation Yrotation
                                    JOINT LeftFinger22
                                    {
                                        OFFSET   2.788160   0.000017   0.000000
                                        CHANNELS 3 Zrotation Xrotation Yrotation
                                        End Site
                                        {
                                            OFFSET   2.727660   0.000000   0.000000
                                        }
                                    }
                                }
                            }
                            JOINT LeftFinger3
                            {
                                OFFSET   7.899780   0.000015  -1.078090
                                CHANNELS 3 Zrotation Xrotation Yrotation
                                JOINT LeftFinger31
                                {
                                    OFFSET   4.646920   0.000000   0.000000
                                    CHANNELS 3 Zrotation Xrotation Yrotation
                                    JOINT LeftFinger32
                                    {
                                        OFFSET   2.323470   0.000000   0.000000
                                        CHANNELS 3 Zrotation Xrotation Yrotation
                                        End Site
                                        {
                                            OFFSET   2.273050   0.000000   0.000000
                                        }
                                    }
                                }
                            }
                            JOINT LeftFinger4
                            {
                                OFFSET   7.435090   0.000000  -3.252850
                                CHANNELS 3 Zrotation Xrotation Yrotation
                                JOINT LeftFinger41
                                {
                                    OFFSET   3.717550   0.000000   0.000000
                                    CHANNELS 3 Zrotation Xrotation Yrotation
                                    JOINT LeftFinger42
                                    {
                                        OFFSET   1.858760   0.000000   0.000000
                                        CHANNELS 3 Zrotation Xrotation Yrotation
                                        End Site
                                        {
                                            OFFSET   1.818440   0.000000   0.000000
                                        }
                                    }
                                }
                            }
                        }
                    }
                }
            }
            JOINT RightCollar
            {
                OFFSET  -3.911900  19.017000  -0.467062
                CHANNELS 3 Zrotation Xrotation Yrotation
                JOINT RightShoulder
                {
                    OFFSET -10.383700   0.000015   0.000000
                    CHANNELS 3 Zrotation Xrotation Yrotation
                    JOINT RightElbow
                    {
                        OFFSET -26.662100   0.001341   0.000385
                        CHANNELS 3 Zrotation Xrotation Yrotation
                        JOINT RightWrist
                        {
                            OFFSET -28.869000   0.000025  -0.000080
                            CHANNELS 3 Zrotation Xrotation Yrotation
                            JOINT RightFinger0
                            {
                                OFFSET  -2.044650  -2.323490   3.252850
                                CHANNELS 3 Zrotation Xrotation Yrotation
                                JOINT RightFinger01
                                {
                                    OFFSET  -3.088130   0.000000   0.000000
                                    CHANNELS 3 Zrotation Xrotation Yrotation
                                    JOINT RightFinger02
                                    {
                                        OFFSET  -2.639460   0.000000   0.000000
                                        CHANNELS 3 Zrotation Xrotation Yrotation
                                        End Site
                                        {
                                            OFFSET  -2.582190   0.000000   0.000000
                                        }
                                    }
                                }
                            }
                            JOINT RightFinger1
                            {
                                OFFSET  -8.364480   0.000000   3.252850
                                CHANNELS 3 Zrotation Xrotation Yrotation
                                JOINT RightFinger11
                                {
                                    OFFSET  -4.646930   0.000000   0.000000
                                    CHANNELS 3 Zrotation Xrotation Yrotation
                                    JOINT RightFinger12
                                    {
                                        OFFSET  -2.323470   0.000000   0.000000
                                        CHANNELS 3 Zrotation Xrotation Yrotation
                                        End Site
                                        {
                                            OFFSET  -2.273050   0.000000   0.000000
                                        }
                                    }
                                }
                            }
                            JOINT RightFinger2
                            {
                                OFFSET  -8.364480   0.000000   1.078090
                                CHANNELS 3 Zrotation Xrotation Yrotation
                                JOINT RightFinger21
                                {
                                    OFFSET  -5.111610   0.000000   0.000000
                                    CHANNELS 3 Zrotation Xrotation Yrotation
                                    JOINT RightFinger22
                                    {
                                        OFFSET  -2.788160   0.000000   0.000000
                                        CHANNELS 3 Zrotation Xrotation Yrotation
                                        End Site
                                        {
                                            OFFSET  -2.727660   0.000000   0.000000
                                        }
                                    }
                                }
                            }
                            JOINT RightFinger3
                            {
                                OFFSET  -7.899780   0.000000  -1.078090
                                CHANNELS 3 Zrotation Xrotation Yrotation
                                JOINT RightFinger31
                                {
                                    OFFSET  -4.646920   0.000000   0.000000
                                    CHANNELS 3 Zrotation Xrotation Yrotation
                                    JOINT RightFinger32
                                    {
                                        OFFSET  -2.323470   0.000000   0.000000
                                        CHANNELS 3 Zrotation Xrotation Yrotation
                                        End Site
                                        {
                                            OFFSET  -2.273050   0.000000   0.000000
                                        }
                                    }
                                }
                            }
                            JOINT RightFinger4
                            {
                                OFFSET  -7.435090   0.000000  -3.252850
                                CHANNELS 3 Zrotation Xrotation Yrotation
                                JOINT RightFinger41
                                {
                                    OFFSET  -3.717550   0.000000   0.000000
                                    CHANNELS 3 Zrotation Xrotation Yrotation
                                    JOINT RightFinger42
                                    {
                                        OFFSET  -1.858770   0.000000   0.000000
                                        CHANNELS 3 Zrotation Xrotation Yrotation
                                        End Site
                                        {
                                            OFFSET  -1.818440   0.000000   0.000000
                                        }
                                    }
                                }
                            }
                        }
                    }
                }
            }
        }
    }
    JOINT LeftHip
    {
        OFFSET   9.783010   0.000000   0.000000
        CHANNELS 3 Zrotation Xrotation Yrotation
        JOINT LeftKnee
        {
            OFFSET   0.000070 -41.789100   0.000028
            CHANNELS 3 Zrotation Xrotation Yrotation
            JOINT LeftAnkle
            {
                OFFSET   0.000087 -41.133200  -0.000100
                CHANNELS 3 Zrotation Xrotation Yrotation
                JOINT LeftToe
                {
                    OFFSET   0.000000  -6.358960  14.674500
                    CHANNELS 3 Zrotation Xrotation Yrotation
                    End Site
                    {
                        OFFSET   0.000000   0.000000   3.913200
                    }
                }
            }
        }
    }
    JOINT RightHip
    {
        OFFSET  -9.783020   0.000000   0.000000
        CHANNELS 3 Zrotation Xrotation Yrotation
        JOINT RightKnee
        {
            OFFSET   0.000044 -41.789100  -0.000870
            CHANNELS 3 Zrotation Xrotation Yrotation
            JOINT RightAnkle
            {
                OFFSET  -0.000090 -41.133200  -0.000245
                CHANNELS 3 Zrotation Xrotation Yrotation
                JOINT RightToe
                {
                    OFFSET   0.000000  -6.358960  14.674500
                    CHANNELS 3 Zrotation Xrotation Yrotation
                    End Site
                    {
                        OFFSET   0.000000   0.000000   3.913200
                    }
                }
            }
        }
    }
}
MOTION
Frames: 5
Frame Time:   0.016667
 -1.309940  89.506400  -0.826581  -0.487225  -0.785789  -4.018040   0.609040   2.170460  -0.641592   1.243720   4.333820  -1.307660  -1.048880  -0.469248  -0.003434  -1.709100  -0.950622   6.157990  -6.495870   2.728860  10.930000 -77.386500   8.917270   5.007950  -0.911629   1.267290 -17.432600   9.611790 -11.635200  -3.836840  38.768900  30.183500 -50.269500 -31.748500  -0.002138  -0.000979 -10.877200  -0.001055   0.013677 -29.004100  -0.061848   0.111514 -23.730700   0.000577  -0.000395 -16.611500   0.000449  -0.000138 -28.175000  -4.081020   7.574050 -35.583500   0.006221   0.007025 -23.698600   0.011296   0.005969 -26.992800  -3.929030   7.656620 -28.097200   0.005829   0.005567 -18.712800  -0.004367  -0.010023 -29.195200  -6.035560  10.656900 -44.638000  -0.011186   0.001831 -29.714900  -0.003345   0.002217   7.415460   4.903220   9.376710  69.093700  -2.429320  -3.289220   4.856100  -3.979570  14.307600 -19.597000   0.924731   3.233960 -41.931800  39.285100  78.670500  28.797100   0.000154  -0.000168   9.390130   0.002114  -0.002949  28.722500   0.605491   1.104780  23.505000  -0.006464  -0.004500  16.447000   0.004792  -0.003198  28.309000  -1.359720  -2.530080  34.540300   0.000644  -0.001106  22.991900   0.004441  -0.005512  28.505800  -2.443100  -4.487450  37.454900  -0.001873   0.004346  24.945000   0.000561   0.000484  36.878900  -3.070730  -4.084160  55.483800   0.004586  -0.002249  36.952200  -0.009358  -0.001529   2.519420   3.037540  -0.000129   0.386710   0.968673  12.602700  -2.401880  -3.339900  -0.324517  -0.000000   0.000000   0.000000  -1.572220   2.777980  -3.239210   0.977234   0.498808 -11.837700  -0.195825  -2.418860  -0.100658   0.000000   0.000000   0.000000
 -1.310190  89.506400  -0.820034  -0.488285  -0.799494  -4.022220   0.612022   2.174770  -0.639251   1.249650   4.342440  -1.303120  -1.048640  -0.436019  -0.003461  -1.712300  -0.883419   6.122970  -6.490970   2.736100  10.929800 -77.396700   8.917280   5.007430  -0.905505   1.277220 -17.425800   9.616920 -11.634900  -3.837080  38.767600  30.176300 -50.229000 -31.753800  -0.002145  -0.000978 -10.877100  -0.001052   0.013681 -29.004000  -0.070691   0.127464 -23.730700   0.000580  -0.000391 -16.611500   0.000449  -0.000137 -28.175000  -4.081050   7.574050 -35.572300   0.006222   0.007023 -23.691100   0.011299   0.005969 -26.992800  -3.929070   7.656620 -28.084900   0.005828   0.005591 -18.704600  -0.004372  -0.010036 -29.186900  -6.041360  10.670400 -44.627500  -0.011199   0.001835 -29.714900  -0.003346   0.002219   7.413680   4.901730   9.361420  69.107900  -2.432260  -3.290920   4.859480  -3.992740  14.307800 -19.602500   0.937268   3.243610 -41.943600  39.302200  78.687800  28.797300   0.000100  -0.000156   9.393750   0.002128  -0.002948  28.719900   0.605497   1.104820  23.502800  -0.006468  -0.004499  16.447500   0.004792  -0.003198  28.309100  -1.359720  -2.528470  34.531300   0.000643  -0.001107  22.991900   0.004441  -0.005512  28.505900  -2.443100  -4.487440  37.456700  -0.001876   0.004350  24.946200   0.000561   0.000488  36.879500  -3.070870  -4.084120  55.484400   0.004586  -0.002252  36.952600  -0.009362  -0.001532   2.518310   3.056470   0.001792   0.388084   0.964770  12.610400  -2.402440  -3.339650  -0.331492  -0.000000   0.000000  -0.000000  -1.571350   2.796550  -3.235880   0.974922   0.492563 -11.848700  -0.194715  -2.421380  -0.087378   0.000000   0.000000   0.000000
 -1.310440  89.506400  -0.808356  -0.490593  -0.829888  -4.029080   0.617603   2.185430  -0.634629   1.260780   4.363740  -1.294190  -1.048400  -0.380223  -0.003511  -1.717530  -0.770504   6.068180  -6.483580   2.745690  10.929600 -77.414300   8.917320   5.003840  -0.896077   1.287160 -17.416400   9.623730 -11.634600  -3.838760  38.752000  30.158700 -50.181400 -31.760000  -0.002162  -0.000977 -10.876900  -0.001049   0.013698 -29.004000  -0.079533   0.143414 -23.730700   0.000587  -0.000384 -16.611500   0.000450  -0.000132 -28.175000  -4.081110   7.574050 -35.561100   0.006224   0.007018 -23.683700   0.011306   0.005967 -26.992700  -3.929140   7.656620 -28.072600   0.005824   0.005654 -18.696300  -0.004384  -0.010071 -29.178700  -6.047170  10.683800 -44.616900  -0.011234   0.001847 -29.714900  -0.003347   0.002227   7.410930   4.897360   9.336800  69.129700  -2.435190  -3.292620   4.864790  -4.013510  14.308100 -19.613700   0.949800   3.258230 -41.954600  39.322800  78.719800  28.798600   0.000000  -0.000137   9.399320   0.002142  -0.002948  28.717200   0.605542   1.105120  23.500600  -0.006478  -0.004498  16.450400   0.004793  -0.003198  28.309400  -1.359730  -2.522820  34.522400   0.000641  -0.001109  22.991900   0.004441  -0.005511  28.505900  -2.443080  -4.487370  37.465600  -0.001885   0.004360  24.952100   0.000559   0.000498  36.882800  -3.071010  -4.083850  55.488600   0.004585  -0.002260  36.955400  -0.009373  -0.001543   2.515190   3.097200   0.005635   0.390124   0.957491  12.623200  -2.403420  -3.339390  -0.343643  -0.000000   0.000000   0.000000  -1.569520   2.836830  -3.229460   0.971651   0.481762 -11.859800  -0.193501  -2.424880  -0.074098   0.000000   0.000000  -0.000000
 -1.309260  89.506400  -0.797509  -0.493578  -0.869774  -4.034450   0.623383   2.201470  -0.629113   1.272340   4.395820  -1.283570  -1.048450  -0.335421  -0.003572  -1.720700  -0.679663   6.029980  -6.478540   2.747860  10.929500 -77.430800   8.926810   4.987940  -0.890385   1.272810 -17.412500   9.624380 -11.635200  -3.848790  38.735800  30.126800 -50.201800 -31.760800  -0.002184  -0.000987 -10.876800  -0.001059   0.013729 -29.020400  -0.074127   0.133600 -23.744100   0.000597  -0.000376 -16.620800   0.000452  -0.000125 -28.180000  -4.081250   7.568690 -35.612500   0.006224   0.007012 -23.718000   0.011318   0.005964 -27.004200  -3.929310   7.650790 -28.123200   0.005818   0.005753 -18.730000  -0.004404  -0.010126 -29.214100  -6.025670  10.632000 -44.662800  -0.011288   0.001868 -29.745500  -0.003348   0.002240   7.408930   4.889620   9.318300  69.146500  -2.407620  -3.282800   4.860150  -4.025610  14.300600 -19.630500   0.933761   3.264020 -41.939000  39.326800  78.749200  28.805700  -0.000100  -0.000126   9.403540   0.002116  -0.002951  28.728700   0.610432   1.113570  23.510200  -0.006492  -0.004495  16.458300   0.004791  -0.003198  28.309900  -1.355800  -2.513350  34.535200   0.000640  -0.001113  23.000400   0.004441  -0.005510  28.507400  -2.434050  -4.470490  37.487700  -0.001898   0.004377  24.966800   0.000557   0.000514  36.893500  -3.060120  -4.068000  55.503000   0.004585  -0.002272  36.965000  -0.009390  -0.001558   2.509880   3.149250   0.011248   0.388760   0.949652  12.634100  -2.404460  -3.342910  -0.355512   0.000000   0.000000   0.000000  -1.570800   2.887990  -3.223240   0.973080   0.473942 -11.852600  -0.193645  -2.426280  -0.080340  -0.000000   0.000000   0.000000
 -1.305820  89.506300  -0.785535  -0.497213  -0.919297  -4.039540   0.629826   2.221230  -0.623345   1.285260   4.435330  -1.272520  -1.048780  -0.288726  -0.003612  -1.726000  -0.584993   5.999720  -6.476200   2.748820  10.929500 -77.447000   8.945880   4.972560  -0.887998   1.258430 -17.411200   9.619870 -11.639700  -3.873310  38.720700  30.095700 -50.222800 -31.761100  -0.002212  -0.001006 -10.876800  -0.001077   0.013775 -29.053300  -0.065602   0.118096 -23.770900   0.000611  -0.000365 -16.639600   0.000455  -0.000115 -28.187400  -4.081400   7.560740 -35.690100   0.006225   0.007004 -23.769600   0.011335   0.005960 -27.022400  -3.929490   7.642040 -28.203100   0.005809   0.005878 -18.783300  -0.004431  -0.010196 -29.265500  -5.993590  10.555200 -44.729400  -0.011357   0.001894 -29.789800  -0.003350   0.002257   7.407680   4.880110   9.302000  69.158900  -2.355220  -3.267820   4.848080  -4.040670  14.293300 -19.641700   0.917720   3.273650 -41.921100  39.331500  78.781500  28.811600  -0.000209  -0.000106   9.405800   0.002078  -0.002958  28.745100   0.622435   1.134570  23.523800  -0.006509  -0.004492  16.466600   0.004789  -0.003197  28.310800  -1.346410  -2.497720  34.554800   0.000638  -0.001119  23.013500   0.004440  -0.005509  28.511200  -2.410230  -4.426260  37.511900  -0.001915   0.004398  24.982900   0.000554   0.000536  36.906400  -3.030810  -4.027240  55.519600   0.004583  -0.002289  36.976100  -0.009413  -0.001579   2.503340   3.211900   0.015257   0.384444   0.941668  12.644100  -2.405310  -3.349150  -0.365916  -0.000000   0.000000   0.000000  -1.577220   2.951660  -3.214450   0.978374   0.462347 -11.839200  -0.194232  -2.426690  -0.094604   0.000000   0.000000   0.000000
